<svg xmlns="http://www.w3.org/2000/svg"><symbol id="chart" viewBox="0 0 24 24"><path d="M3 3v18h18M7 16v-5m5 5V7m5 9v-8"/></symbol><symbol id="book" viewBox="0 0 24 24"><path d="M12 5v15M12 5C8 2 3 4 3 4v15s5-2 9 1c4-3 9-1 9-1V4s-5-2-9 1Z"/></symbol><symbol id="file" viewBox="0 0 24 24"><path d="M14 2H5v20h14V7l-5-5Zm0 0v5h5M8 12h8M8 16h8"/></symbol><symbol id="folder" viewBox="0 0 24 24"><path d="M2 6h8l2 3h10v12H2V6Zm0 0V3h7l3 3h8v3"/></symbol><symbol id="guide" viewBox="0 0 24 24"><path d="M4 3h13v18H4V3Zm4 5h5M8 12h5m-5 4h5m4-10h3v15h-3"/></symbol></svg>
